<svg width="24" height="22" viewBox="0 0 24 22" fill="none" xmlns="http://www.w3.org/2000/svg">
<path id="Vector" fill-rule="evenodd" clip-rule="evenodd" d="M1.02429 1.69231H22.4257C22.88 1.69231 23.2488 1.31323 23.2488 0.846154C23.2488 0.379077 22.88 0 22.4257 0H1.02429C0.571569 0 0.20116 0.379077 0.20116 0.846154C0.20116 1.31323 0.571569 1.69231 1.02429 1.69231ZM22.4257 6.76923H7.60932C7.1566 6.76923 6.78619 7.14831 6.78619 7.61538C6.78619 8.08246 7.1566 8.46154 7.60932 8.46154H22.4257C22.88 8.46154 23.2488 8.08246 23.2488 7.61538C23.2488 7.14662 22.88 6.76923 22.4257 6.76923ZM22.4257 13.5367H1.02429C0.571569 13.5367 0.20116 13.9158 0.20116 14.3829C0.20116 14.8499 0.571569 15.229 1.02429 15.229H22.4257C22.88 15.229 23.2488 14.8499 23.2488 14.3829C23.2488 13.9158 22.88 13.5367 22.4257 13.5367ZM22.4257 20.3077H10.0787C9.62599 20.3077 9.25558 20.6868 9.25558 21.1538C9.25558 21.6209 9.62599 22 10.0787 22H22.4257C22.88 22 23.2488 21.6209 23.2488 21.1538C23.2488 20.6868 22.88 20.3077 22.4257 20.3077Z" fill="#2A2A2A"/>
</svg>
